<svg xmlns="http://www.w3.org/2000/svg" viewBox="0 0 300 97"><defs><style>.cls-1{fill:#fff799;}.cls-2{fill:#7ecef4;}.cls-3{fill:#fff;}</style></defs><title>note</title><g id="Trill_L"><polygon class="cls-1" points="25.62 72 2.12 48.5 25.62 25 274.38 25 297.88 48.5 274.38 72 25.62 72"/><path class="cls-2" d="M273.76,26.5l22,22-22,22H26.24l-22-22,22-22H273.76m1.24-3H25L0,48.5H0l25,25H275l25-25h0l-25-25Z"/><rect class="cls-3" x="112.5" y="55.5" width="33" height="33" transform="translate(-13.13 112.31) rotate(-45)"/><path class="cls-2" d="M129,50.08,150.92,72,129,93.92,107.08,72,129,50.08m0-2.83L104.25,72,129,96.75,153.75,72,129,47.25Z"/><rect class="cls-3" x="154.5" y="8.5" width="33" height="33" transform="translate(32.41 128.24) rotate(-45)"/><path class="cls-2" d="M171,3.08,192.92,25,171,46.92,149.08,25,171,3.08m0-2.83L146.25,25,171,49.75,195.75,25,171,.25Z"/></g></svg>