<svg xmlns="http://www.w3.org/2000/svg" viewBox="0 0 300 97"><defs><style>.cls-1{fill:#fff799;}.cls-2{fill:#ed6d46;}.cls-3{fill:#fff;}</style></defs><title>note</title><g id="Trill_R"><polygon class="cls-1" points="25.62 72.5 2.12 49 25.62 25.5 274.38 25.5 297.88 49 274.38 72.5 25.62 72.5"/><path class="cls-2" d="M273.76,27l19.72,19.72L295.76,49,285.38,59.38,273.76,71H26.24l-22-22,22-22H273.76M275,24H25L0,49H0L25,74H275l25-25h0L275,24Z"/><rect class="cls-3" x="112.5" y="56" width="33" height="33" transform="translate(-13.48 112.45) rotate(-45)"/><path class="cls-2" d="M129,50.58,150.92,72.5,129,94.42,107.08,72.5,129,50.58m0-2.83L104.25,72.5,129,97.25,153.75,72.5,129,47.75Z"/><rect class="cls-3" x="154.5" y="9" width="33" height="33" transform="translate(32.05 128.38) rotate(-45)"/><path class="cls-2" d="M171,3.58,192.92,25.5,171,47.42,149.08,25.5,171,3.58m0-2.83L146.25,25.5,171,50.25,195.75,25.5,171,.75Z"/></g></svg>