<?xml version="1.0" encoding="iso-8859-1"?>
<!-- Generator: Adobe Illustrator 21.0.0, SVG Export Plug-In . SVG Version: 6.00 Build 0)  -->
<svg version="1.1" xmlns="http://www.w3.org/2000/svg" xmlns:xlink="http://www.w3.org/1999/xlink" x="0px" y="0px"
	 viewBox="0 0 300 50" style="enable-background:new 0 0 300 50;" xml:space="preserve">
<g id="Note_x5F_L">
	<g>
		<polygon style="fill:#FFFFFF;" points="-324.379,-252 -347.879,-275.5 -324.379,-299 -75.621,-299 -52.121,-275.5 -75.621,-252 		
			"/>
		<path style="fill:#7ECEF4;" d="M-76.243-297.5l22,22l-22,22h-247.515l-22-22l22-22H-76.243 M-75-300.5h-250
			c-9.763,9.763-15.237,15.237-25,25v0c9.763,9.763,15.237,15.237,25,25h250c9.763-9.763,15.237-15.237,25-25v0
			C-59.763-285.263-65.237-290.737-75-300.5L-75-300.5z"/>
	</g>
</g>
<g id="Note_x5F_R">
	<g>
		<polygon style="fill:#FFFFFF;" points="25.621,-252 2.121,-275.5 25.621,-299 274.379,-299 297.879,-275.5 274.379,-252 		"/>
		<path style="fill:#ED6D44;" d="M273.757-297.5l19.717,19.717l2.283,2.283l-10.379,10.379L273.757-253.5H26.243l-22-22l22-22
			H273.757 M275-300.5H25c-9.763,9.763-15.237,15.237-25,25v0c9.763,9.763,15.237,15.237,25,25h250c9.763-9.763,15.237-15.237,25-25
			v0C290.237-285.263,284.763-290.737,275-300.5L275-300.5z"/>
	</g>
</g>
<g id="Glissando_x5F_L">
	<g>
		<polygon style="fill:#FFF799;" points="-324.379,-152 -347.879,-175.5 -324.379,-199 -75.621,-199 -52.121,-175.5 -75.621,-152 		
			"/>
		<path style="fill:#7ECEF4;" d="M-76.243-197.5l22,22l-22,22h-247.515l-22-22l22-22H-76.243 M-75-200.5h-250
			c-9.763,9.763-15.237,15.237-25,25v0c9.763,9.763,15.237,15.237,25,25h250c9.763-9.763,15.237-15.237,25-25v0
			C-59.763-185.263-65.237-190.737-75-200.5L-75-200.5z"/>
	</g>
</g>
<g id="Glissando_x5F_R">
	<g>
		<polygon style="fill:#FFF799;" points="25.621,-152 2.121,-175.5 25.621,-199 274.379,-199 297.879,-175.5 274.379,-152 		"/>
		<path style="fill:#ED6D46;" d="M273.757-197.5l19.717,19.717l2.283,2.283l-10.379,10.379L273.757-153.5H26.243l-22-22l22-22
			H273.757 M275-200.5H25c-9.763,9.763-15.237,15.237-25,25v0c9.763,9.763,15.237,15.237,25,25h250c9.763-9.763,15.237-15.237,25-25
			v0C290.237-185.263,284.763-190.737,275-200.5L275-200.5z"/>
	</g>
</g>
<g id="Trill_x5F_L_1_">
	<g>
		<polygon style="fill:#FFF799;" points="-324.379,-52 -347.879,-75.5 -324.379,-99 -75.621,-99 -52.121,-75.5 -75.621,-52 		"/>
		<path style="fill:#7ECEF4;" d="M-76.243-97.5l22,22l-22,22h-247.515l-22-22l22-22H-76.243 M-75-100.5h-250
			c-9.763,9.763-15.237,15.237-25,25v0c9.763,9.763,15.237,15.237,25,25h250c9.763-9.763,15.237-15.237,25-25v0
			C-59.763-85.263-65.237-90.737-75-100.5L-75-100.5z"/>
	</g>
	<g>
		
			<rect x="-237.5" y="-68.5" transform="matrix(0.7071 -0.7071 0.7071 0.7071 -27.9611 -171.503)" style="fill:#FFFFFF;" width="33" height="33"/>
		<path style="fill:#7ECEF4;" d="M-221-73.92L-199.08-52L-221-30.08L-242.92-52L-221-73.92 M-221-76.749L-245.749-52L-221-27.251
			L-196.251-52L-221-76.749L-221-76.749z"/>
	</g>
	<g>
		
			<rect x="-195.5" y="-115.5" transform="matrix(0.7071 -0.7071 0.7071 0.7071 17.5751 -155.5705)" style="fill:#FFFFFF;" width="33" height="33"/>
		<path style="fill:#7ECEF4;" d="M-179-120.92L-157.08-99L-179-77.08L-200.92-99L-179-120.92 M-179-123.749L-203.749-99L-179-74.251
			L-154.251-99L-179-123.749L-179-123.749z"/>
	</g>
</g>
<g id="Trill_x5F_R">
	<g>
		<polygon style="fill:#FFF799;" points="25.621,-51.5 2.121,-75 25.621,-98.5 274.379,-98.5 297.879,-75 274.379,-51.5 		"/>
		<path style="fill:#ED6D46;" d="M273.757-97l19.717,19.717L295.757-75l-10.379,10.379L273.757-53H26.243l-22-22l22-22H273.757
			 M275-100H25C15.237-90.237,9.763-84.763,0-75v0c9.763,9.763,15.237,15.237,25,25h250c9.763-9.763,15.237-15.237,25-25v0
			C290.237-84.763,284.763-90.237,275-100L275-100z"/>
	</g>
	<g>
		
			<rect x="112.5" y="-68" transform="matrix(0.7071 -0.7071 0.7071 0.7071 74.1992 76.1328)" style="fill:#FFFFFF;" width="33.001" height="33.001"/>
		<path style="fill:#ED6D46;" d="M129-73.42l21.92,21.92L129-29.58L107.08-51.5L129-73.42 M129-76.249L104.251-51.5L129-26.751
			L153.749-51.5L129-76.249L129-76.249z"/>
	</g>
	<g>
		
			<rect x="154.5" y="-115" transform="matrix(0.7071 -0.7071 0.7071 0.7071 119.7348 92.0653)" style="fill:#FFFFFF;" width="33.001" height="33.001"/>
		<path style="fill:#ED6D46;" d="M171-120.42l21.92,21.92L171-76.58L149.08-98.5L171-120.42 M171-123.249L146.251-98.5L171-73.751
			L195.749-98.5L171-123.249L171-123.249z"/>
	</g>
</g>
<g id="Tenuto_x5F_L">
	<g>
		<polygon style="fill:#00479D;" points="-324.379,48.5 -347.879,25 -324.379,1.5 -75.621,1.5 -52.121,25 -75.621,48.5 		"/>
		<path style="fill:#7ECEF4;" d="M-76.243,3l22,22l-22,22h-247.515l-22-22l22-22H-76.243 M-75,0h-250
			c-9.763,9.763-15.237,15.237-25,25v0c9.763,9.763,15.237,15.237,25,25h250c9.763-9.763,15.237-15.237,25-25v0
			C-59.763,15.237-65.237,9.763-75,0L-75,0z"/>
	</g>
</g>
<g id="Tenuto_x5F_R">
	<g>
		<polygon style="fill:#540000;" points="25.621,48.5 2.121,25 25.621,1.5 274.379,1.5 297.879,25 274.379,48.5 		"/>
		<path style="fill:#ED6D44;" d="M273.757,3l19.717,19.717L295.757,25l-10.379,10.379L273.757,47H26.243l-22-22l22-22H273.757
			 M275,0H25C15.237,9.763,9.763,15.237,0,25v0c9.763,9.763,15.237,15.237,25,25h250c9.763-9.763,15.237-15.237,25-25v0
			C290.237,15.237,284.763,9.763,275,0L275,0z"/>
	</g>
</g>
</svg>
